<?xml version="1.0" encoding="utf-8"?>
<!-- Generator: Adobe Illustrator 24.1.2, SVG Export Plug-In . SVG Version: 6.00 Build 0)  -->
<svg version="1.1" id="Layer_1" xmlns="http://www.w3.org/2000/svg" xmlns:xlink="http://www.w3.org/1999/xlink" x="0px" y="0px"
	 viewBox="0 0 511 511" style="enable-background:new 0 0 511 511;" xml:space="preserve">
<style type="text/css">
	.st0{fill:#CB9080;}
	.st1{fill:#A40160;}
	.st2{fill:#DB0589;}
</style>
<path class="st0" d="M399.2,505.9c-6.9,6.8-18,6.8-24.9,0L50.1,185.6c-3.3-3.3-5.2-7.7-5.2-12.3c0-4.6,1.9-9.1,5.2-12.3
	c6.9-6.8,18-6.8,24.9,0l324.2,320.3c3.3,3.2,5.2,7.7,5.2,12.3C404.4,498.2,402.5,502.7,399.2,505.9z"/>
<path class="st1" d="M324.4,271.9C305.7,179.5,386.8,161,386.8,161l-106-104.7c-47.9-15.6-100.1,6.4-122.2,51.7L324.4,271.9z"/>
<g>
	<path class="st2" d="M81.2,167.2c6.2-67.7,74.8-61.6,74.8-61.6l168.3,166.3c-56.1,43.1-24.9,110.9-24.9,110.9L81.2,167.2z"/>
	<path class="st2" d="M280.8,56.3c0,0,93.5-80.1,187-49.3c-93.5,104.7-81.1,154-81.1,154"/>
</g>
</svg>
