<?xml version="1.0" encoding="iso-8859-1"?>
<!-- Generator: Adobe Illustrator 19.0.0, SVG Export Plug-In . SVG Version: 6.00 Build 0)  -->
<svg version="1.1" id="Layer_1" xmlns="http://www.w3.org/2000/svg" xmlns:xlink="http://www.w3.org/1999/xlink" x="0px" y="0px"
	 viewBox="0 0 512 512" style="enable-background:new 0 0 512 512;" xml:space="preserve">
<polygon style="fill:#3B97D3;" points="128,512 0,438.857 0,292.571 128,219.429 256,292.571 256,457.143 "/>
<path style="fill:#2D769E;" d="M36.571,429.714c-5.486,0-9.143-3.657-9.143-9.143V310.857c0-3.657,1.829-6.4,4.571-8.229
	l91.429-54.857c4.571-2.743,10.057-0.914,12.8,2.743c2.743,4.571,0.914,10.057-2.743,12.8l-87.771,53.029v104.229
	C45.714,426.057,42.057,429.714,36.571,429.714z"/>
<polygon style="fill:#71C285;" points="384,512 256,457.143 256,292.571 384,219.429 512,292.571 512,438.857 "/>
<path style="fill:#599967;" d="M292.571,438.857c-5.486,0-9.143-3.657-9.143-9.143V310.857c0-3.657,1.829-6.4,4.571-8.229
	l91.429-54.857c4.571-2.743,10.057-0.914,12.8,2.743c2.743,4.571,0.914,10.057-2.743,12.8l-87.771,53.029v113.371
	C301.714,435.2,298.057,438.857,292.571,438.857z"/>
<polygon style="fill:#F29C1F;" points="256,292.571 128,219.429 128,73.143 256,0 384,73.143 384,219.429 "/>
<path style="fill:#CC801B;" d="M164.571,210.286c-5.486,0-9.143-3.657-9.143-9.143V91.429c0-3.657,1.829-6.4,4.571-8.229
	l91.429-54.857c4.571-1.829,10.057-0.914,12.8,3.657c1.829,4.571,0.914,10.057-3.657,12.8l-86.857,52.114v104.229
	C173.714,206.629,170.057,210.286,164.571,210.286z"/>
<g>
</g>
<g>
</g>
<g>
</g>
<g>
</g>
<g>
</g>
<g>
</g>
<g>
</g>
<g>
</g>
<g>
</g>
<g>
</g>
<g>
</g>
<g>
</g>
<g>
</g>
<g>
</g>
<g>
</g>
</svg>
